<svg width="64" height="59" viewBox="0 0 64 59" fill="none" xmlns="http://www.w3.org/2000/svg">
<path d="M41.7667 2C41.7667 2 57.1 5.35437 62 21.1414" stroke="#48CAE4" stroke-width="3" stroke-miterlimit="10" stroke-linecap="round" stroke-linejoin="round"/>
<path d="M39.8664 8.83203C39.8664 8.83203 51.1664 12.1864 54.5664 22.6496" stroke="#48CAE4" stroke-width="3" stroke-miterlimit="10" stroke-linecap="round" stroke-linejoin="round"/>
<path d="M38.4663 15.2019C38.4663 15.2019 45.4329 18.3409 47.2329 23.911" stroke="#48CAE4" stroke-width="3" stroke-miterlimit="10" stroke-linecap="round" stroke-linejoin="round"/>
<path d="M37.8332 24.1576C44.7665 30.5586 44.7998 35.6978 44.7998 35.6978L41.7332 38.5291C41.3665 38.8676 40.7998 38.9599 40.3332 38.7137C37.8665 37.4212 32.6332 37.6366 31.9665 38.2829C31.1999 38.9907 31.9665 38.2829 31.9665 38.2829L17.9666 51.208C17.6332 51.5157 17.1666 51.7003 16.6666 51.7003L7.4666 52.1927L7.93326 43.6376C7.96659 43.2375 8.16659 42.8682 8.46659 42.5604L22.5332 29.5738C22.5332 29.5738 21.7332 30.3124 22.5332 29.5738C23.2332 28.9276 23.4665 24.096 22.0666 21.8495C21.7999 21.4495 21.8999 20.8955 22.2666 20.557L25.3332 17.7258C25.3665 17.7566 30.8999 17.7566 37.8332 24.1576Z" stroke="#48CAE4" stroke-width="3" stroke-miterlimit="10" stroke-linecap="round" stroke-linejoin="round"/>
<path d="M26.0665 34.8977L22.0332 38.6213" stroke="#48CAE4" stroke-width="3" stroke-miterlimit="10" stroke-linecap="round" stroke-linejoin="round"/>
<path d="M7.49998 52.1926L2 57.1165" stroke="#48CAE4" stroke-width="3" stroke-miterlimit="10" stroke-linecap="round" stroke-linejoin="round"/>
</svg>
