<svg width="66" height="53" viewBox="0 0 66 53" fill="none" xmlns="http://www.w3.org/2000/svg">
<path d="M20.3813 29.3303C19.7613 27.8807 18.9003 26.5544 17.8326 25.3515C15.6284 22.8531 12.2187 19.4911 9.98002 16.8694C8.36129 14.9879 8.67123 13.5691 9.36005 12.6438C9.94555 11.8419 11.1854 11.7493 11.9431 12.3971C12.4942 12.8906 13.2519 13.384 14.1819 13.6925C16.2139 14.3402 21.0012 9.49773 20.9323 7.49288C20.8634 5.48803 13.9407 2.12604 11.0821 2.00267C8.60235 1.87929 4.33168 6.07406 3.16068 7.24612C2.95403 7.46203 2.81627 7.70879 2.78183 7.98638C2.5063 9.43604 1.64524 14.8646 2.16186 26.9553C2.67848 39.077 12.9764 46.572 16.2828 48.6694C16.8683 49.0395 17.5915 49.0395 18.177 48.7003C19.2103 48.1142 21.0701 47.2814 23.0332 47.4665C26.064 47.7441 29.1293 54.5606 44.3867 48.9162C56.9578 44.2587 53.1692 35.314 54.6158 33.7718C54.788 33.5868 54.9947 33.4634 55.2357 33.34C70.1488 27.418 61.7796 15.4506 60.5741 13.8467C60.5053 13.7233 60.4019 13.6308 60.2641 13.5383C55.4424 9.77532 51.6539 9.49773 45.9711 11.5643C41.5281 13.1681 39.3239 19.1519 38.5317 21.8044L38.1874 23.0999C25.4786 20.2314 21.6556 32.0754 21.6556 32.0754L20.3813 29.3303Z" stroke="#48CAE4" stroke-width="3" stroke-miterlimit="10" stroke-linecap="round" stroke-linejoin="round"/>
</svg>
