<svg width="64" height="59" viewBox="0 0 64 59" fill="none" xmlns="http://www.w3.org/2000/svg">
<path d="M25.0205 51.9387H59.8679C61.0339 51.9387 62 53.1239 62 54.5274C62 55.9309 61.0339 57.1161 59.8679 57.1161H4.13215C2.99944 57.1161 2 55.9309 2 54.5274C2 53.1239 2.96613 51.9387 4.13215 51.9387H6.13103" stroke="#48CAE4" stroke-width="3" stroke-miterlimit="10" stroke-linecap="round" stroke-linejoin="round"/>
<path d="M52.5717 7.7128L52.8382 7.43209L55.037 5.06171C55.57 4.46912 55.5034 3.56463 54.8704 3.06561L53.9709 2.34826C53.3379 1.81804 52.3718 1.91161 51.8388 2.5042L49.4401 5.12409L46.9748 7.80636L9.52894 48.4146C9.06254 48.9449 9.09584 50.785 10.2952 50.9098C12.7605 50.9098 25.5201 50.5043 35.4812 39.9624C41.2447 33.8805 43.2768 26.1456 40.0453 22.7772C39.6788 22.3717 39.6788 21.7791 40.0453 21.3736L50.1397 10.4263L52.5717 7.7128Z" stroke="#48CAE4" stroke-width="3" stroke-miterlimit="10" stroke-linecap="round" stroke-linejoin="round"/>
</svg>
