<svg width="64" height="59" viewBox="0 0 64 59" fill="none" xmlns="http://www.w3.org/2000/svg">
<path d="M2 35.8995L10.5026 32.1112C15.4707 29.8851 21.0058 30.1194 25.8406 32.8141L39.4447 40.3518C41.0785 41.25 41.7787 43.5543 41.0452 45.4679C40.3449 47.2645 38.6111 48.1627 37.0106 47.5378L24.8736 43.1246" stroke="#48CAE4" stroke-width="3" stroke-miterlimit="10" stroke-linecap="round" stroke-linejoin="round"/>
<path d="M2 56.0908L7.16823 51.9119C10.4359 49.2562 14.6038 48.7094 18.2716 50.3888L31.609 56.4423C34.3431 57.692 37.4441 57.1844 39.7448 55.0754L60.5177 36.3681C62.1849 34.884 62.485 32.1111 61.2179 30.1584C60.0176 28.3228 57.8169 27.8932 56.1831 29.143L40.3116 41.0938" stroke="#48CAE4" stroke-width="3" stroke-miterlimit="10" stroke-linecap="round" stroke-linejoin="round"/>
<path d="M34.1099 22.3476H24.407C19.6055 22.3476 15.7044 17.7782 15.7377 12.1543C15.7377 6.53039 19.6389 2 24.4403 2H34.1433L34.1099 22.3476Z" stroke="#48CAE4" stroke-width="3" stroke-miterlimit="10" stroke-linecap="round" stroke-linejoin="round"/>
<path d="M43.7793 22.3869H34.1097L34.143 2.03931H43.8126C48.6141 2.03931 52.4819 6.60873 52.4819 12.2326C52.4819 15.0446 51.5149 17.5831 49.9478 19.4187C48.3473 21.2543 46.18 22.3869 43.7793 22.3869Z" stroke="#48CAE4" stroke-width="3" stroke-miterlimit="10" stroke-linecap="round" stroke-linejoin="round"/>
<path d="M31.9087 6.68644C32.3505 6.68644 32.7087 6.26677 32.7087 5.74911C32.7087 5.23144 32.3505 4.81177 31.9087 4.81177C31.4668 4.81177 31.1087 5.23144 31.1087 5.74911C31.1087 6.26677 31.4668 6.68644 31.9087 6.68644Z" fill="#48CAE4"/>
<path d="M31.9088 13.0526C32.3506 13.0526 32.7088 12.633 32.7088 12.1153C32.7088 11.5977 32.3506 11.178 31.9088 11.178C31.467 11.178 31.1088 11.5977 31.1088 12.1153C31.1088 12.633 31.467 13.0526 31.9088 13.0526Z" fill="#48CAE4"/>
<path d="M31.8752 19.4574C32.3171 19.4574 32.6752 19.0378 32.6752 18.5201C32.6752 18.0024 32.3171 17.5828 31.8752 17.5828C31.4334 17.5828 31.0752 18.0024 31.0752 18.5201C31.0752 19.0378 31.4334 19.4574 31.8752 19.4574Z" fill="#48CAE4"/>
<path d="M26.8071 6.68644C27.2489 6.68644 27.6071 6.26677 27.6071 5.74911C27.6071 5.23144 27.2489 4.81177 26.8071 4.81177C26.3652 4.81177 26.0071 5.23144 26.0071 5.74911C26.0071 6.26677 26.3652 6.68644 26.8071 6.68644Z" fill="#48CAE4"/>
<path d="M26.8072 13.0526C27.249 13.0526 27.6072 12.633 27.6072 12.1153C27.6072 11.5977 27.249 11.178 26.8072 11.178C26.3653 11.178 26.0072 11.5977 26.0072 12.1153C26.0072 12.633 26.3653 13.0526 26.8072 13.0526Z" fill="#48CAE4"/>
<path d="M26.8072 19.4574C27.249 19.4574 27.6072 19.0378 27.6072 18.5201C27.6072 18.0024 27.249 17.5828 26.8072 17.5828C26.3653 17.5828 26.0072 18.0024 26.0072 18.5201C26.0072 19.0378 26.3653 19.4574 26.8072 19.4574Z" fill="#48CAE4"/>
<path d="M21.7058 6.68644C22.1477 6.68644 22.5058 6.26677 22.5058 5.74911C22.5058 5.23144 22.1477 4.81177 21.7058 4.81177C21.264 4.81177 20.9058 5.23144 20.9058 5.74911C20.9058 6.26677 21.264 6.68644 21.7058 6.68644Z" fill="#48CAE4"/>
<path d="M21.7059 13.0526C22.1477 13.0526 22.5059 12.633 22.5059 12.1153C22.5059 11.5977 22.1477 11.178 21.7059 11.178C21.264 11.178 20.9059 11.5977 20.9059 12.1153C20.9059 12.633 21.264 13.0526 21.7059 13.0526Z" fill="#48CAE4"/>
<path d="M21.7059 19.4183C22.1477 19.4183 22.5059 18.9986 22.5059 18.481C22.5059 17.9633 22.1477 17.5437 21.7059 17.5437C21.264 17.5437 20.9059 17.9633 20.9059 18.481C20.9059 18.9986 21.264 19.4183 21.7059 19.4183Z" fill="#48CAE4"/>
<path d="M29.3412 9.81065C29.7831 9.81065 30.1412 9.39104 30.1412 8.87337C30.1412 8.35571 29.7831 7.93604 29.3412 7.93604C28.8994 7.93604 28.5412 8.35571 28.5412 8.87337C28.5412 9.39104 28.8994 9.81065 29.3412 9.81065Z" fill="#48CAE4"/>
<path d="M29.3412 16.1769C29.7831 16.1769 30.1412 15.7572 30.1412 15.2395C30.1412 14.7219 29.7831 14.3022 29.3412 14.3022C28.8994 14.3022 28.5412 14.7219 28.5412 15.2395C28.5412 15.7572 28.8994 16.1769 29.3412 16.1769Z" fill="#48CAE4"/>
<path d="M24.2398 9.81065C24.6816 9.81065 25.0398 9.39104 25.0398 8.87337C25.0398 8.35571 24.6816 7.93604 24.2398 7.93604C23.798 7.93604 23.4398 8.35571 23.4398 8.87337C23.4398 9.39104 23.798 9.81065 24.2398 9.81065Z" fill="#48CAE4"/>
<path d="M24.2398 16.1769C24.6816 16.1769 25.0398 15.7572 25.0398 15.2395C25.0398 14.7219 24.6816 14.3022 24.2398 14.3022C23.798 14.3022 23.4398 14.7219 23.4398 15.2395C23.4398 15.7572 23.798 16.1769 24.2398 16.1769Z" fill="#48CAE4"/>
<path d="M19.0717 9.81065C19.5135 9.81065 19.8717 9.39104 19.8717 8.87337C19.8717 8.35571 19.5135 7.93604 19.0717 7.93604C18.6299 7.93604 18.2717 8.35571 18.2717 8.87337C18.2717 9.39104 18.6299 9.81065 19.0717 9.81065Z" fill="#48CAE4"/>
<path d="M19.0381 16.1769C19.4799 16.1769 19.8381 15.7572 19.8381 15.2395C19.8381 14.7219 19.4799 14.3022 19.0381 14.3022C18.5963 14.3022 18.2381 14.7219 18.2381 15.2395C18.2381 15.7572 18.5963 16.1769 19.0381 16.1769Z" fill="#48CAE4"/>
</svg>
