<svg width="64" height="66" viewBox="0 0 64 66" fill="none" xmlns="http://www.w3.org/2000/svg">
<path d="M31.134 32.4602C31.8049 33.7021 32.1581 35.1164 32.1581 36.6342C32.1581 41.7051 27.9557 45.8102 22.7646 45.8102C17.5734 45.8102 13.3711 41.7051 13.3711 36.6342C13.3711 35.1509 13.7242 33.7366 14.3952 32.4602" stroke="#48CAE4" stroke-width="3" stroke-miterlimit="10" stroke-linecap="round" stroke-linejoin="round"/>
<path d="M31.1342 32.4601H14.3601L14.9604 22.7322L16.267 22.3873C20.434 21.2489 24.813 21.2144 28.98 22.3183L30.5691 22.7322L31.1342 32.4601Z" stroke="#48CAE4" stroke-width="3" stroke-miterlimit="10" stroke-linecap="round" stroke-linejoin="round"/>
<path d="M18.9155 27.1821H26.3314" stroke="#48CAE4" stroke-width="3" stroke-miterlimit="10" stroke-linecap="round" stroke-linejoin="round"/>
<path d="M22.6232 30.8042V23.5601" stroke="#48CAE4" stroke-width="3" stroke-miterlimit="10" stroke-linecap="round" stroke-linejoin="round"/>
<path d="M2 56.6417C2 52.0538 11.3229 48.2937 22.7646 48.2937C34.2063 48.2937 43.4585 52.0193 43.4585 56.6417V64.0928H32.0521H13.477H2V56.6417Z" stroke="#48CAE4" stroke-width="3" stroke-miterlimit="10" stroke-linecap="round" stroke-linejoin="round"/>
<path d="M22.7293 64.0929L15.5253 48.8457" stroke="#48CAE4" stroke-width="3" stroke-miterlimit="10" stroke-linecap="round" stroke-linejoin="round"/>
<path d="M22.7292 64.0929L29.9686 48.8457" stroke="#48CAE4" stroke-width="3" stroke-miterlimit="10" stroke-linecap="round" stroke-linejoin="round"/>
<path d="M50.9802 31.4939C50.9802 31.4939 35.4774 25.8021 35.654 10.4858" stroke="#48CAE4" stroke-width="3" stroke-miterlimit="10" stroke-linecap="round" stroke-linejoin="round"/>
<path d="M46.6721 32.8737L50.5214 31.6318C50.7686 31.5628 50.9451 31.2868 50.8745 31.0109L50.027 26.9749" stroke="#48CAE4" stroke-width="3" stroke-miterlimit="10" stroke-linecap="round" stroke-linejoin="round"/>
<path d="M46.6723 3.41431C46.6723 3.41431 62.1751 9.10613 61.9985 24.4223" stroke="#48CAE4" stroke-width="3" stroke-miterlimit="10" stroke-linecap="round" stroke-linejoin="round"/>
<path d="M50.9805 2L47.1313 3.24186C46.8841 3.31085 46.7075 3.58682 46.7781 3.86279L47.6257 7.89881" stroke="#48CAE4" stroke-width="3" stroke-miterlimit="10" stroke-linecap="round" stroke-linejoin="round"/>
</svg>
